<svg width="95" height="95" viewBox="0 0 95 95" fill="none" xmlns="http://www.w3.org/2000/svg">
<path d="M77.1875 20.7812L40.0781 35.625L2.96875 20.7812L40.0781 5.9375L77.1875 20.7812Z" fill="url(#paint0_linear_1082_80778)"/>
<path d="M40.0781 35.625V77.1875L2.96875 62.3438V20.7812L40.0781 35.625Z" fill="url(#paint1_linear_1082_80778)"/>
<path d="M64.3922 15.6602L28.5594 31.0235L28.2031 31.1719V44.5313L17.8125 40.0782V26.7188L53.6453 11.3704L64.3922 15.6602Z" fill="url(#paint2_linear_1082_80778)"/>
<path d="M77.1875 20.7812V62.3438L40.0781 77.1875V35.625L77.1875 20.7812Z" fill="url(#paint3_linear_1082_80778)"/>
<path d="M72.2002 91.2002C82.6936 91.2002 91.2002 82.6936 91.2002 72.2002C91.2002 61.7068 82.6936 53.2002 72.2002 53.2002C61.7068 53.2002 53.2002 61.7068 53.2002 72.2002C53.2002 82.6936 61.7068 91.2002 72.2002 91.2002Z" fill="url(#paint4_linear_1082_80778)"/>
<path d="M76.2283 72.2003L79.9143 68.5143C81.0353 67.3933 81.0353 65.5883 79.9143 64.4863C78.7933 63.3653 76.9883 63.3653 75.8863 64.4863L72.2003 68.1723L68.5143 64.4863C67.3933 63.3653 65.5883 63.3653 64.4863 64.4863C63.3653 65.6073 63.3653 67.4123 64.4863 68.5143L68.1723 72.2003L64.4863 75.8863C63.3653 77.0073 63.3653 78.8123 64.4863 79.9143C65.6073 81.0353 67.4123 81.0353 68.5143 79.9143L72.2003 76.2283L75.8863 79.9143C77.0073 81.0353 78.8123 81.0353 79.9143 79.9143C81.0353 78.7933 81.0353 76.9883 79.9143 75.8863L76.2283 72.2003Z" fill="white"/>
<defs>
<linearGradient id="paint0_linear_1082_80778" x1="29.5638" y1="42.476" x2="58.0789" y2="3.71029" gradientUnits="userSpaceOnUse">
<stop stop-color="#FFBC00"/>
<stop offset="1" stop-color="#FFD14F"/>
</linearGradient>
<linearGradient id="paint1_linear_1082_80778" x1="16.2663" y1="90.2043" x2="52.2667" y2="77.3249" gradientUnits="userSpaceOnUse">
<stop stop-color="#FFBC00"/>
<stop offset="1" stop-color="#FFD14F"/>
</linearGradient>
<linearGradient id="paint2_linear_1082_80778" x1="34.5036" y1="52.1838" x2="66.6936" y2="27.5958" gradientUnits="userSpaceOnUse">
<stop stop-color="#176CF7"/>
<stop offset="1" stop-color="#0C36C1"/>
</linearGradient>
<linearGradient id="paint3_linear_1082_80778" x1="53.3757" y1="90.2043" x2="89.376" y2="77.3249" gradientUnits="userSpaceOnUse">
<stop stop-color="#FFBC00"/>
<stop offset="1" stop-color="#FFD14F"/>
</linearGradient>
<linearGradient id="paint4_linear_1082_80778" x1="72.2002" y1="53.2002" x2="72.2002" y2="91.2002" gradientUnits="userSpaceOnUse">
<stop stop-color="#FE4949"/>
<stop offset="1" stop-color="#F92323"/>
</linearGradient>
</defs>
</svg>
