<svg width="91" height="91" viewBox="0 0 91 91" fill="none" xmlns="http://www.w3.org/2000/svg">
<path d="M61.6075 15.6306C61.139 16.0917 60.7673 16.6391 60.5137 17.2417C60.2602 17.8442 60.1296 18.4901 60.1296 19.1423C60.1296 19.7945 60.2602 20.4403 60.5137 21.0428C60.7673 21.6454 61.139 22.1929 61.6075 22.654L82.3737 43.0966C82.8415 43.5608 83.3977 43.9294 84.0106 44.1814C84.6235 44.4334 85.281 44.5638 85.9451 44.565C86.6093 44.5663 87.2672 44.4386 87.8811 44.1889C88.495 43.9393 89.0526 43.5728 89.5223 43.1104C89.9919 42.6481 90.3643 42.099 90.6178 41.4947C90.8714 40.8904 91.0013 40.2428 91 39.589C90.9987 38.9351 90.8662 38.288 90.6102 37.6847C90.3542 37.0813 89.9798 36.5338 89.5083 36.0732L68.7415 15.6302C68.2731 15.169 67.7171 14.8032 67.105 14.5536C66.493 14.3041 65.837 14.1757 65.1745 14.1757C64.512 14.1757 63.8561 14.3041 63.244 14.5536C62.632 14.8032 62.0759 15.169 61.6075 15.6302" fill="url(#paint0_linear_8027_3926)"/>
<path d="M29.3645 28.9069C29.8331 28.4457 30.2048 27.8983 30.4583 27.2957C30.7119 26.6932 30.8423 26.0473 30.8423 25.3951C30.8423 24.7429 30.7119 24.0971 30.4583 23.4946C30.2048 22.8921 29.8331 22.3445 29.3645 21.8834L8.59836 1.44079C7.65098 0.515472 6.36974 -0.00259263 5.03517 -1.02152e-05C3.7006 0.00257029 2.42131 0.525617 1.47763 1.4546C0.533943 2.38358 0.0027181 3.64273 9.34905e-05 4.9565C-0.00252921 6.27028 0.523737 7.53164 1.46371 8.46427L22.2299 28.9069C23.176 29.8382 24.4591 30.3615 25.7971 30.3615C27.1351 30.3615 28.4184 29.8382 29.3645 28.9069Z" fill="url(#paint1_linear_8027_3926)"/>
<path d="M59.5554 58.4323C59.0869 58.8934 58.7152 59.4409 58.4616 60.0434C58.208 60.646 58.0776 61.2918 58.0776 61.944C58.0776 62.5962 58.208 63.242 58.4616 63.8446C58.7152 64.4471 59.0869 64.9946 59.5554 65.4558L80.3216 85.8984C81.2689 86.8237 82.5502 87.3418 83.8847 87.3392C85.2193 87.3366 86.4986 86.8135 87.4423 85.8846C88.386 84.9556 88.9172 83.6964 88.9198 82.3827C88.9224 81.0689 88.3962 79.8075 87.4562 78.8749L66.69 58.4323C65.7439 57.5009 64.4608 56.9777 63.1228 56.9777C61.7848 56.9777 60.5015 57.5009 59.5554 58.4323Z" fill="url(#paint2_linear_8027_3926)"/>
<path d="M19.8869 62.0931C19.4184 62.5542 19.0467 63.1017 18.7931 63.7042C18.5396 64.3068 18.4092 64.9526 18.4092 65.6048C18.4092 66.257 18.5396 66.9028 18.7931 67.5054C19.0467 68.1079 19.4184 68.6554 19.8869 69.1166L40.6531 89.5592C41.6005 90.4845 42.8817 91.0025 44.2163 91C45.5509 90.9974 46.8301 90.4743 47.7738 89.5454C48.7175 88.6164 49.2487 87.3572 49.2514 86.0435C49.254 84.7297 48.7277 83.4683 47.7878 82.5357L27.0216 62.0931C26.0755 61.1617 24.7923 60.6385 23.4543 60.6385C22.1163 60.6385 20.833 61.1617 19.8869 62.0931Z" fill="url(#paint3_linear_8027_3926)"/>
<path d="M52.8235 53.4875C52.118 54.1819 51.2193 54.6548 50.2407 54.8464C49.2622 55.0379 48.2479 54.9395 47.3262 54.5636C46.4045 54.1878 45.6167 53.5513 45.0624 52.7346C44.5081 51.918 44.2122 50.9579 44.2122 49.9758C44.2122 48.9936 44.5081 48.0335 45.0624 47.2169C45.6167 46.4003 46.4045 45.7638 47.3262 45.3879C48.2479 45.012 49.2622 44.9137 50.2407 45.1052C51.2193 45.2968 52.118 45.7697 52.8235 46.4641C53.292 46.9252 53.6637 47.4727 53.9173 48.0752C54.1709 48.6777 54.3013 49.3236 54.3013 49.9758C54.3013 50.628 54.1709 51.2738 53.9173 51.8763C53.6637 52.4789 53.292 53.0264 52.8235 53.4875Z" fill="white"/>
<path d="M52.7322 9.8173C52.0267 10.5117 51.1279 10.9846 50.1494 11.1762C49.1709 11.3677 48.1566 11.2693 47.2349 10.8934C46.3132 10.5175 45.5254 9.88105 44.9711 9.06442C44.4168 8.24779 44.1208 7.2877 44.1208 6.30556C44.1208 5.32342 44.4168 4.36332 44.9711 3.54669C45.5254 2.73006 46.3132 2.09357 47.2349 1.71768C48.1566 1.3418 49.1709 1.24344 50.1494 1.43499C51.1279 1.62655 52.0267 2.09944 52.7322 2.79387C53.2007 3.25501 53.5724 3.80245 53.826 4.40499C54.0796 5.00754 54.21 5.65336 54.21 6.30556C54.21 6.95776 54.0796 7.60358 53.826 8.20612C53.5724 8.80867 53.2007 9.35615 52.7322 9.8173Z" fill="white"/>
<path d="M16.7827 48.4603C16.0772 49.1548 15.1783 49.6278 14.1997 49.8195C13.2211 50.0111 12.2066 49.9128 11.2848 49.5369C10.3629 49.161 9.57492 48.5244 9.02057 47.7077C8.46622 46.891 8.17033 45.9308 8.17033 44.9486C8.17033 43.9663 8.46622 43.0061 9.02057 42.1894C9.57492 41.3727 10.3629 40.7361 11.2848 40.3603C12.2066 39.9844 13.2211 39.886 14.1997 40.0777C15.1783 40.2693 16.0772 40.7423 16.7827 41.4368C17.7288 42.3682 18.2603 43.6314 18.2603 44.9486C18.2603 46.2657 17.7288 47.5289 16.7827 48.4603Z" fill="#FFDB3C"/>
<defs>
<linearGradient id="paint0_linear_8027_3926" x1="90.9863" y1="44.627" x2="60.4817" y2="13.6395" gradientUnits="userSpaceOnUse">
<stop stop-color="white"/>
<stop offset="0.852083" stop-color="white" stop-opacity="0"/>
</linearGradient>
<linearGradient id="paint1_linear_8027_3926" x1="30.6567" y1="30.39" x2="0.565143" y2="-0.590905" gradientUnits="userSpaceOnUse">
<stop stop-color="white"/>
<stop offset="0.852083" stop-color="white" stop-opacity="0"/>
</linearGradient>
<linearGradient id="paint2_linear_8027_3926" x1="59.687" y1="58.5619" x2="88.4606" y2="87.7912" gradientUnits="userSpaceOnUse">
<stop stop-color="#FFDB3C"/>
<stop offset="0.883333" stop-color="#FFDB3C" stop-opacity="0"/>
</linearGradient>
<linearGradient id="paint3_linear_8027_3926" x1="20.0186" y1="62.2227" x2="48.7922" y2="91.452" gradientUnits="userSpaceOnUse">
<stop stop-color="#FFDB3C"/>
<stop offset="0.883333" stop-color="#FFDB3C" stop-opacity="0"/>
</linearGradient>
</defs>
</svg>
