<svg width="16" height="16" viewBox="0 0 16 16" fill="none" xmlns="http://www.w3.org/2000/svg">
<g clip-path="url(#clip0_8086_2162)">
<path d="M7.29395 1.33333C10.2176 1.33333 12.5876 3.68948 12.5879 6.59602C12.5879 7.98599 12.0445 9.24885 11.1592 10.1898L13.8457 13.5267C14.0889 13.8293 14.0396 14.271 13.7354 14.513C13.4311 14.755 12.9868 14.706 12.7432 14.4036L10.0674 11.0794C9.26075 11.5738 8.31107 11.8597 7.29395 11.8597C4.37016 11.8596 2 9.50273 2 6.59602C2.00025 3.68953 4.37032 1.33342 7.29395 1.33333ZM7.29395 2.73665C5.15001 2.73674 3.41236 4.46466 3.41211 6.59602C3.41211 8.72759 5.14986 10.4563 7.29395 10.4564C9.43811 10.4564 11.1768 8.72765 11.1768 6.59602C11.1765 4.46461 9.43795 2.73665 7.29395 2.73665Z" fill="#555555"/>
</g>
<defs>
<clipPath id="clip0_8086_2162">
<rect width="16" height="16" fill="white"/>
</clipPath>
</defs>
</svg>
