<svg width="21" height="20" viewBox="0 0 21 20" fill="none" xmlns="http://www.w3.org/2000/svg">
<path fill-rule="evenodd" clip-rule="evenodd" d="M7.23435 10.4351C7.12121 10.322 7.05109 10.1658 7.05168 9.99319C7.05168 9.64789 7.33098 9.36858 7.67629 9.36858H13.3237C13.669 9.36858 13.9483 9.64789 13.9483 9.99319C13.9483 10.3385 13.669 10.6178 13.3237 10.6178H7.67629C7.50364 10.6184 7.34748 10.5483 7.23435 10.4351Z" fill="#176CF7"/>
<path fill-rule="evenodd" clip-rule="evenodd" d="M10.0575 13.2607C9.94433 13.1476 9.87421 12.9914 9.8748 12.8188L9.87539 7.16606C9.87539 6.82076 10.1547 6.54145 10.5 6.54145C10.8459 6.54204 11.1252 6.82135 11.1246 7.16606L11.124 12.8188C11.124 13.1641 10.8447 13.4434 10.4994 13.4434C10.3268 13.444 10.17 13.3733 10.0575 13.2607Z" fill="#176CF7"/>
<path fill-rule="evenodd" clip-rule="evenodd" d="M6.88748 2.91675C4.77915 2.91675 3.41665 4.36091 3.41665 6.59675V13.4034C3.41665 15.6392 4.77915 17.0834 6.88748 17.0834H14.1108C16.22 17.0834 17.5833 15.6392 17.5833 13.4034V6.59675C17.5833 4.36091 16.22 2.91675 14.1116 2.91675H6.88748ZM14.1108 18.3334H6.88749C4.06332 18.3334 2.16666 16.3517 2.16666 13.4034V6.59675C2.16666 3.64841 4.06332 1.66675 6.88749 1.66675H14.1117C16.9358 1.66675 18.8333 3.64841 18.8333 6.59675V13.4034C18.8333 16.3517 16.9358 18.3334 14.1108 18.3334Z" fill="#176CF7"/>
</svg>
