<svg width="20" height="20" viewBox="0 0 20 20" fill="none" xmlns="http://www.w3.org/2000/svg">
<path fill-rule="evenodd" clip-rule="evenodd" d="M6.73435 10.435C6.62121 10.3219 6.55109 10.1657 6.55168 9.99307C6.55168 9.64776 6.83098 9.36846 7.17629 9.36846H12.8237C13.169 9.36846 13.4483 9.64776 13.4483 9.99307C13.4483 10.3384 13.169 10.6177 12.8237 10.6177H7.17629C7.00364 10.6183 6.84748 10.5481 6.73435 10.435Z" fill="#EE4343"/>
<path fill-rule="evenodd" clip-rule="evenodd" d="M6.38748 2.91663C4.27915 2.91663 2.91665 4.36079 2.91665 6.59663V13.4033C2.91665 15.6391 4.27915 17.0833 6.38748 17.0833H13.6108C15.72 17.0833 17.0833 15.6391 17.0833 13.4033V6.59663C17.0833 4.36079 15.72 2.91663 13.6116 2.91663H6.38748ZM13.6108 18.3333H6.38749C3.56332 18.3333 1.66666 16.3516 1.66666 13.4033V6.59663C1.66666 3.64829 3.56332 1.66663 6.38749 1.66663H13.6117C16.4358 1.66663 18.3333 3.64829 18.3333 6.59663V13.4033C18.3333 16.3516 16.4358 18.3333 13.6108 18.3333Z" fill="#EE4343"/>
</svg>
