<svg width="12" height="12" viewBox="0 0 12 12" fill="none" xmlns="http://www.w3.org/2000/svg">
<path d="M1.01074 6.33472C1.01074 5.1451 1.94787 4.17439 3.12402 4.11987L3.22852 4.11694H3.69434C3.90142 4.11694 4.0693 4.28487 4.06934 4.49194C4.06934 4.68165 3.92894 4.83901 3.74609 4.86401L3.69434 4.86694H3.22852C2.44706 4.86694 1.80831 5.47851 1.76367 6.24878L1.76074 6.33472L1.76074 8.77222C1.76085 9.553 2.37166 10.1912 3.1416 10.2361L3.22852 10.239H8.79297C9.57436 10.239 10.2132 9.62803 10.2578 8.85815L10.2607 8.77222V6.32983C10.2607 5.55121 9.652 4.91445 8.88477 4.86987L8.79883 4.86694H8.32715C8.12008 4.86689 7.95215 4.69902 7.95215 4.49194C7.95218 4.30214 8.09337 4.1457 8.27637 4.12085L8.32715 4.11694H8.79883C9.9844 4.11699 10.9519 5.05052 11.0078 6.22241L11.0107 6.32983V8.77222C11.0106 9.96135 10.0735 10.9326 8.89746 10.9871L8.79297 10.989H3.22852C2.0391 10.989 1.06738 10.0523 1.0127 8.87671L1.01074 8.77222V6.33472ZM4.28809 2.82495C4.15498 2.6921 4.14247 2.48359 4.25098 2.33667L4.28711 2.29468L5.74023 0.835693C5.78018 0.79408 5.83027 0.763624 5.88574 0.743896C5.90093 0.738513 5.916 0.733592 5.93164 0.730225C5.93683 0.729107 5.942 0.728196 5.94727 0.727295C5.96446 0.72435 5.98163 0.722951 5.99902 0.722412C6.00292 0.722293 6.00682 0.720459 6.01074 0.720459C6.01732 0.72046 6.02378 0.722076 6.03027 0.722412C6.04076 0.72296 6.05111 0.723917 6.06152 0.725342C6.07582 0.727288 6.08978 0.729643 6.10352 0.733154C6.11041 0.734916 6.11721 0.736854 6.12402 0.739014C6.13711 0.743174 6.14969 0.748148 6.16211 0.753662C6.17116 0.757672 6.1797 0.762571 6.18848 0.767334C6.19944 0.773293 6.21043 0.778902 6.2207 0.785889C6.22508 0.788864 6.2301 0.791496 6.23438 0.794678L6.24023 0.800537C6.25084 0.80881 6.26086 0.817559 6.27051 0.826904L6.27637 0.830811L7.73438 2.29468C7.88047 2.44137 7.87999 2.67879 7.7334 2.82495C7.59999 2.95781 7.3917 2.96934 7.24512 2.86011L7.20313 2.82397L6.38574 2.00366L6.38574 7.11597C6.38563 7.32296 6.21776 7.49094 6.01074 7.49097C5.82091 7.49097 5.66352 7.34977 5.63867 7.16675L5.63574 7.11597L5.63574 2.00269L4.81934 2.82397C4.68652 2.95738 4.4781 2.96962 4.33105 2.86108L4.28809 2.82495Z" fill="white"/>
<path d="M3.12402 4.11987L3.11702 3.86993L3.11245 3.87014L3.12402 4.11987ZM3.22852 4.11694V3.86685L3.22151 3.86704L3.22852 4.11694ZM4.06934 4.49194H4.31934V4.4919L4.06934 4.49194ZM3.74609 4.86401L3.76022 5.11361L3.77013 5.11305L3.77997 5.11171L3.74609 4.86401ZM3.69434 4.86694V5.11734L3.70846 5.11654L3.69434 4.86694ZM1.76367 6.24878L1.51402 6.23431L1.51382 6.24026L1.76367 6.24878ZM1.76074 6.33472L1.51074 6.32619V6.33472H1.76074ZM1.76074 8.77222H1.51074V8.77225L1.76074 8.77222ZM3.1416 10.2361L3.12706 10.4857L3.13318 10.4859L3.1416 10.2361ZM3.22852 10.239L3.22009 10.489H3.22852V10.239ZM10.2578 8.85815L10.5075 8.87263L10.5077 8.86667L10.2578 8.85815ZM10.2607 8.77222L10.5107 8.78074V8.77222H10.2607ZM8.88477 4.86987L8.89927 4.62022L8.89328 4.62002L8.88477 4.86987ZM8.79883 4.86694L8.80735 4.61694H8.79883V4.86694ZM8.32715 4.86694L8.32709 5.11694H8.32715V4.86694ZM7.95215 4.49194L7.70215 4.4919V4.49194H7.95215ZM8.27637 4.12085L8.25719 3.87159L8.24994 3.87214L8.24273 3.87312L8.27637 4.12085ZM8.32715 4.11694V3.86694H8.31755L8.30797 3.86768L8.32715 4.11694ZM8.79883 4.11694L8.79884 3.86694H8.79883V4.11694ZM11.0078 6.22241L11.2578 6.2156L11.2575 6.2105L11.0078 6.22241ZM11.0107 6.32983H11.2608L11.2606 6.32302L11.0107 6.32983ZM11.0107 8.77222L11.2607 8.77224V8.77222H11.0107ZM8.89746 10.9871L8.90213 11.2371L8.90904 11.2368L8.89746 10.9871ZM8.79297 10.989V11.2391L8.79764 11.239L8.79297 10.989ZM1.0127 8.87671L0.762642 8.88138L0.762965 8.88832L1.0127 8.87671ZM1.01074 8.77222H0.760699L0.760786 8.77689L1.01074 8.77222ZM4.28809 2.82495L4.11147 3.00189L4.11902 3.00943L4.12719 3.01629L4.28809 2.82495ZM4.25098 2.33667L4.06147 2.17361L4.0554 2.18066L4.04988 2.18815L4.25098 2.33667ZM4.28711 2.29468L4.10998 2.11826L4.10355 2.12471L4.09761 2.13162L4.28711 2.29468ZM5.74023 0.835693L5.9174 1.01214L5.92058 1.00883L5.74023 0.835693ZM5.88574 0.743896L5.80221 0.508265L5.80197 0.508348L5.88574 0.743896ZM5.93164 0.730225L5.98427 0.974623L5.98431 0.974613L5.93164 0.730225ZM5.94727 0.727295L5.98944 0.973712L5.98947 0.973707L5.94727 0.727295ZM5.99902 0.722412L5.99135 0.47253L5.99129 0.472531L5.99902 0.722412ZM6.01074 0.720459L6.01078 0.470459H6.01074V0.720459ZM6.03027 0.722412L6.04333 0.472754L6.04317 0.472745L6.03027 0.722412ZM6.06152 0.725342L6.02766 0.973038L6.0278 0.973058L6.06152 0.725342ZM6.10352 0.733154L6.04161 0.975368L6.04166 0.975382L6.10352 0.733154ZM6.12402 0.739014L6.19975 0.500759L6.19961 0.500714L6.12402 0.739014ZM6.16211 0.753662L6.06068 0.98216L6.06086 0.982244L6.16211 0.753662ZM6.18848 0.767334L6.30782 0.547661L6.3077 0.547595L6.18848 0.767334ZM6.2207 0.785889L6.36132 0.579185L6.3613 0.579171L6.2207 0.785889ZM6.23438 0.794678L6.41115 0.617901L6.39828 0.605025L6.38367 0.594151L6.23438 0.794678ZM6.24023 0.800537L6.06346 0.977314L6.07434 0.988199L6.08648 0.997667L6.24023 0.800537ZM6.27051 0.826904L6.0966 1.0065L6.11292 1.02231L6.13183 1.03492L6.27051 0.826904ZM6.27637 0.830811L6.4535 0.654388L6.43585 0.63667L6.41504 0.622798L6.27637 0.830811ZM7.73438 2.29468L7.91151 2.11826L7.91151 2.11826L7.73438 2.29468ZM7.7334 2.82495L7.90981 3.00209L7.90991 3.00199L7.7334 2.82495ZM7.24512 2.86011L7.08206 3.04961L7.08871 3.05533L7.09574 3.06057L7.24512 2.86011ZM7.20313 2.82397L7.02603 3.00043L7.0328 3.00723L7.04006 3.01348L7.20313 2.82397ZM6.38574 2.00366L6.56283 1.8272L6.13574 1.39858V2.00366H6.38574ZM6.38574 7.11597L6.63574 7.1161V7.11597H6.38574ZM6.01074 7.49097V7.74097H6.01077L6.01074 7.49097ZM5.63867 7.16675L5.38909 7.18115L5.38964 7.1908L5.39094 7.20038L5.63867 7.16675ZM5.63574 7.11597H5.38574V7.12317L5.38616 7.13037L5.63574 7.11597ZM5.63574 2.00269H5.88574V1.39658L5.45844 1.82644L5.63574 2.00269ZM4.81934 2.82397L4.99651 3.00036L4.99664 3.00022L4.81934 2.82397ZM4.33105 2.86108L4.17015 3.05242L4.17622 3.05752L4.18259 3.06223L4.33105 2.86108ZM1.01074 6.33472H1.26074C1.26074 5.27936 2.09219 4.41796 3.1356 4.36961L3.12402 4.11987L3.11245 3.87014C1.80356 3.93081 0.760742 5.01084 0.760742 6.33472H1.01074ZM3.12402 4.11987L3.13103 4.36977L3.23552 4.36685L3.22852 4.11694L3.22151 3.86704L3.11702 3.86997L3.12402 4.11987ZM3.22852 4.11694V4.36694H3.69434V4.11694V3.86694H3.22852V4.11694ZM3.69434 4.11694V4.36694C3.7633 4.36694 3.81932 4.4229 3.81934 4.49199L4.06934 4.49194L4.31934 4.4919C4.31927 4.14683 4.03954 3.86694 3.69434 3.86694V4.11694ZM4.06934 4.49194H3.81934C3.81934 4.55587 3.77203 4.60814 3.71222 4.61632L3.74609 4.86401L3.77997 5.11171C4.08584 5.06988 4.31934 4.80743 4.31934 4.49194H4.06934ZM3.74609 4.86401L3.73197 4.61441L3.68021 4.61734L3.69434 4.86694L3.70846 5.11654L3.76022 5.11361L3.74609 4.86401ZM3.69434 4.86694V4.61694H3.22852V4.86694V5.11694H3.69434V4.86694ZM3.22852 4.86694V4.61694C2.31367 4.61694 1.56634 5.33275 1.51409 6.23431L1.76367 6.24878L2.01325 6.26324C2.05028 5.62426 2.58046 5.11694 3.22852 5.11694V4.86694ZM1.76367 6.24878L1.51382 6.24026L1.51089 6.3262L1.76074 6.33472L2.0106 6.34323L2.01353 6.2573L1.76367 6.24878ZM1.76074 6.33472H1.51074L1.51074 8.77222H1.76074H2.01074V6.33472H1.76074ZM1.76074 8.77222L1.51074 8.77225C1.51087 9.68639 2.22588 10.4332 3.12706 10.4857L3.1416 10.2361L3.15614 9.98651C2.51744 9.9493 2.01083 9.41961 2.01074 8.77218L1.76074 8.77222ZM3.1416 10.2361L3.13318 10.4859L3.22009 10.4889L3.22852 10.239L3.23694 9.98916L3.15002 9.98623L3.1416 10.2361ZM3.22852 10.239V10.489H8.79297V10.239V9.98901H3.22852V10.239ZM8.79297 10.239V10.489C9.70757 10.489 10.4551 9.77397 10.5074 8.87263L10.2578 8.85815L10.0082 8.84368C9.97121 9.48209 9.44115 9.98901 8.79297 9.98901V10.239ZM10.2578 8.85815L10.5077 8.86667L10.5106 8.78073L10.2607 8.77222L10.0109 8.7637L10.008 8.84964L10.2578 8.85815ZM10.2607 8.77222H10.5107V6.32983H10.2607H10.0107V8.77222H10.2607ZM10.2607 6.32983H10.5107C10.5107 5.41805 9.79799 4.67251 8.89927 4.62029L8.88477 4.86987L8.87027 5.11945C9.50601 5.15639 10.0107 5.68437 10.0107 6.32983H10.2607ZM8.88477 4.86987L8.89328 4.62002L8.80735 4.61709L8.79883 4.86694L8.79031 5.1168L8.87625 5.11973L8.88477 4.86987ZM8.79883 4.86694V4.61694H8.32715V4.86694V5.11694H8.79883V4.86694ZM8.32715 4.86694L8.32721 4.61694C8.25811 4.61693 8.20215 4.56089 8.20215 4.49194H7.95215H7.70215C7.70215 4.83715 7.98206 5.11686 8.32709 5.11694L8.32715 4.86694ZM7.95215 4.49194L8.20215 4.49199C8.20216 4.4294 8.24877 4.37689 8.31 4.36858L8.27637 4.12085L8.24273 3.87312C7.93797 3.9145 7.70221 4.17488 7.70215 4.4919L7.95215 4.49194ZM8.27637 4.12085L8.29554 4.37011L8.34632 4.36621L8.32715 4.11694L8.30797 3.86768L8.25719 3.87159L8.27637 4.12085ZM8.32715 4.11694V4.36694H8.79883V4.11694V3.86694H8.32715V4.11694ZM8.79883 4.11694L8.79882 4.36694C9.85018 4.36698 10.7085 5.19493 10.7581 6.23433L11.0078 6.22241L11.2575 6.2105C11.1953 4.9061 10.1186 3.86699 8.79884 3.86694L8.79883 4.11694ZM11.0078 6.22241L10.7579 6.22923L10.7608 6.33665L11.0107 6.32983L11.2606 6.32302L11.2577 6.2156L11.0078 6.22241ZM11.0107 6.32983H10.7607V8.77222H11.0107H11.2607V6.32983H11.0107ZM11.0107 8.77222L10.7607 8.77219C10.7606 9.82713 9.9291 10.689 8.88589 10.7373L8.89746 10.9871L8.90904 11.2368C10.2178 11.1761 11.2606 10.0956 11.2607 8.77224L11.0107 8.77222ZM8.89746 10.9871L8.89279 10.7371L8.7883 10.7391L8.79297 10.989L8.79764 11.239L8.90213 11.237L8.89746 10.9871ZM8.79297 10.989V10.739H3.22852V10.989V11.239H8.79297V10.989ZM3.22852 10.989V10.739C2.17313 10.739 1.31092 9.90778 1.26243 8.86509L1.0127 8.87671L0.762965 8.88832C0.82383 10.1969 1.90507 11.239 3.22852 11.239V10.989ZM1.0127 8.87671L1.26265 8.87204L1.2607 8.76754L1.01074 8.77222L0.760786 8.77689L0.762739 8.88138L1.0127 8.87671ZM1.01074 8.77222H1.26074L1.26074 6.33472H1.01074H0.760742L0.760742 8.77222H1.01074ZM4.28809 2.82495L4.4647 2.64801C4.42046 2.60386 4.41607 2.53395 4.45208 2.48519L4.25098 2.33667L4.04988 2.18815C3.86887 2.43323 3.88951 2.78034 4.11147 3.00189L4.28809 2.82495ZM4.25098 2.33667L4.44048 2.49973L4.47661 2.45774L4.28711 2.29468L4.09761 2.13162L4.06147 2.17361L4.25098 2.33667ZM4.28711 2.29468L4.46424 2.4711L5.91737 1.01211L5.74023 0.835693L5.5631 0.659273L4.10998 2.11826L4.28711 2.29468ZM5.74023 0.835693L5.92058 1.00883C5.93015 0.998857 5.94561 0.987946 5.96951 0.979445L5.88574 0.743896L5.80197 0.508348C5.71493 0.539303 5.63021 0.589303 5.55989 0.662561L5.74023 0.835693ZM5.88574 0.743896L5.96928 0.979527C5.9751 0.977463 5.9788 0.97624 5.98144 0.975434C5.98397 0.974663 5.98474 0.974521 5.98427 0.974623L5.93164 0.730225L5.87901 0.485826C5.84748 0.492618 5.82039 0.501819 5.80221 0.508265L5.88574 0.743896ZM5.93164 0.730225L5.98431 0.974613C5.98383 0.974716 5.98443 0.974568 5.98944 0.973712L5.94727 0.727295L5.90509 0.480878C5.89957 0.481823 5.88982 0.483498 5.87897 0.485836L5.93164 0.730225ZM5.94727 0.727295L5.98947 0.973707C5.99239 0.973207 5.99757 0.972577 6.00676 0.972293L5.99902 0.722412L5.99129 0.472531C5.96569 0.473324 5.93654 0.475492 5.90506 0.480883L5.94727 0.727295ZM5.99902 0.722412L6.0067 0.972294C6.02554 0.971715 6.04066 0.969205 6.04947 0.967498C6.05401 0.966619 6.05772 0.965782 6.05997 0.965259C6.06113 0.964991 6.06209 0.96476 6.06269 0.964614C6.063 0.96454 6.06327 0.964476 6.06344 0.964434C6.06374 0.964361 6.06361 0.964392 6.06378 0.964352C6.06417 0.964256 6.06283 0.964585 6.06103 0.96499C6.0591 0.965422 6.05576 0.966142 6.05152 0.966895C6.04327 0.96836 6.0289 0.970459 6.01074 0.970459V0.720459V0.470459C5.99063 0.470459 5.97429 0.472787 5.96408 0.4746C5.95886 0.475527 5.95455 0.47645 5.95165 0.4771C5.94887 0.477724 5.94655 0.478289 5.94597 0.478429C5.94478 0.478716 5.94584 0.478457 5.94684 0.478225C5.94812 0.477928 5.95085 0.477306 5.95442 0.476615C5.96129 0.475286 5.97445 0.473049 5.99135 0.47253L5.99902 0.722412ZM6.01074 0.720459L6.01071 0.970459C6.00226 0.970458 5.99561 0.969943 5.99173 0.969569C5.98809 0.969219 5.98558 0.968856 5.98652 0.968984C5.98669 0.969008 5.98689 0.969036 5.98735 0.9691C5.98774 0.969153 5.98837 0.969241 5.98904 0.969333C5.99038 0.969517 5.9925 0.969803 5.99499 0.970108C5.99987 0.970706 6.00779 0.971583 6.01737 0.972079L6.03027 0.722412L6.04317 0.472745C6.04951 0.473073 6.05419 0.473622 6.05582 0.473823C6.05661 0.473919 6.05836 0.474157 6.05456 0.473636C6.05225 0.473318 6.04649 0.472529 6.03959 0.471865C6.03244 0.471178 6.02252 0.470461 6.01078 0.470459L6.01074 0.720459ZM6.03027 0.722412L6.01722 0.972071C6.02104 0.972271 6.02444 0.972597 6.02766 0.973038L6.06152 0.725342L6.09539 0.477646C6.07777 0.475237 6.06047 0.47365 6.04333 0.472754L6.03027 0.722412ZM6.06152 0.725342L6.0278 0.973058C6.03739 0.974362 6.04088 0.975182 6.04161 0.975368L6.10352 0.733154L6.16542 0.49094C6.13867 0.484103 6.11425 0.480214 6.09524 0.477626L6.06152 0.725342ZM6.10352 0.733154L6.04166 0.975382C6.04409 0.976003 6.04631 0.976638 6.04844 0.977313L6.12402 0.739014L6.19961 0.500714C6.18812 0.49707 6.17674 0.49383 6.16537 0.490927L6.10352 0.733154ZM6.12402 0.739014L6.0483 0.977268C6.05062 0.978008 6.05444 0.979394 6.06068 0.98216L6.16211 0.753662L6.26354 0.525165C6.24493 0.516902 6.2236 0.50834 6.19975 0.500759L6.12402 0.739014ZM6.16211 0.753662L6.06086 0.982244C6.05776 0.980867 6.05632 0.980042 6.05797 0.980919C6.05877 0.981346 6.05986 0.98194 6.06184 0.983025C6.06343 0.983894 6.06648 0.985572 6.06925 0.987073L6.18848 0.767334L6.3077 0.547595C6.30614 0.546748 6.28438 0.534393 6.26335 0.525081L6.16211 0.753662ZM6.18848 0.767334L6.06913 0.987007C6.07232 0.988739 6.07627 0.990859 6.07808 0.991833C6.08047 0.993124 6.08185 0.993875 6.08284 0.994429C6.08487 0.995566 6.08328 0.994768 6.0801 0.992606L6.2207 0.785889L6.3613 0.579171C6.3377 0.563122 6.3109 0.54933 6.30782 0.547661L6.18848 0.767334ZM6.2207 0.785889L6.08008 0.992592C6.08524 0.996099 6.08966 0.998876 6.09234 1.00054C6.09372 1.00139 6.09493 1.00214 6.0957 1.00261C6.09686 1.00331 6.0967 1.00321 6.09725 1.00355C6.09789 1.00394 6.09669 1.00322 6.09488 1.00204C6.09298 1.00081 6.08947 0.998472 6.08508 0.995204L6.23438 0.794678L6.38367 0.594151C6.37714 0.589293 6.3714 0.585433 6.36722 0.582722C6.36313 0.580061 6.35961 0.577904 6.3579 0.576862C6.35729 0.576486 6.35595 0.575676 6.35595 0.57567C6.35555 0.575432 6.3556 0.57546 6.35583 0.575602C6.35621 0.575834 6.35835 0.577167 6.36132 0.579185L6.2207 0.785889ZM6.23438 0.794678L6.0576 0.971455L6.06346 0.977314L6.24023 0.800537L6.41701 0.62376L6.41115 0.617901L6.23438 0.794678ZM6.24023 0.800537L6.08648 0.997667C6.08979 1.00025 6.0931 1.00311 6.0966 1.0065L6.27051 0.826904L6.44442 0.647309C6.42862 0.632009 6.41189 0.617373 6.39399 0.603407L6.24023 0.800537ZM6.27051 0.826904L6.13183 1.03492L6.13769 1.03882L6.27637 0.830811L6.41504 0.622798L6.40918 0.618892L6.27051 0.826904ZM6.27637 0.830811L6.09924 1.00723L7.55724 2.4711L7.73438 2.29468L7.91151 2.11826L6.4535 0.654388L6.27637 0.830811ZM7.73438 2.29468L7.55724 2.47109C7.6059 2.51995 7.60578 2.59916 7.55688 2.64791L7.7334 2.82495L7.90991 3.00199C8.1542 2.75843 8.15504 2.36279 7.91151 2.11826L7.73438 2.29468ZM7.7334 2.82495L7.55698 2.64781C7.5128 2.69181 7.44332 2.69603 7.3945 2.65964L7.24512 2.86011L7.09574 3.06057C7.34008 3.24264 7.68718 3.22381 7.90981 3.00209L7.7334 2.82495ZM7.24512 2.86011L7.40818 2.6706L7.36619 2.63447L7.20313 2.82397L7.04006 3.01348L7.08206 3.04961L7.24512 2.86011ZM7.20313 2.82397L7.38022 2.64751L6.56283 1.8272L6.38574 2.00366L6.20865 2.18012L7.02603 3.00043L7.20313 2.82397ZM6.38574 2.00366H6.13574L6.13574 7.11597H6.38574H6.63574L6.63574 2.00366H6.38574ZM6.38574 7.11597L6.13574 7.11583C6.13571 7.18496 6.07958 7.24096 6.01071 7.24097L6.01074 7.49097L6.01077 7.74097C6.35594 7.74092 6.63556 7.46096 6.63574 7.1161L6.38574 7.11597ZM6.01074 7.49097V7.24097C5.94739 7.24097 5.89461 7.1936 5.8864 7.13312L5.63867 7.16675L5.39094 7.20038C5.43243 7.50594 5.69443 7.74097 6.01074 7.74097V7.49097ZM5.63867 7.16675L5.88826 7.15235L5.88533 7.10157L5.63574 7.11597L5.38616 7.13037L5.38909 7.18115L5.63867 7.16675ZM5.63574 7.11597H5.88574L5.88574 2.00269H5.63574H5.38574L5.38574 7.11597H5.63574ZM5.63574 2.00269L5.45844 1.82644L4.64203 2.64773L4.81934 2.82397L4.99664 3.00022L5.81305 2.17893L5.63574 2.00269ZM4.81934 2.82397L4.64217 2.64759C4.59837 2.69158 4.52872 2.69625 4.47952 2.65994L4.33105 2.86108L4.18259 3.06223C4.42748 3.24298 4.77468 3.22317 4.99651 3.00036L4.81934 2.82397ZM4.33105 2.86108L4.49195 2.66974L4.44899 2.63361L4.28809 2.82495L4.12719 3.01629L4.17015 3.05242L4.33105 2.86108Z" fill="white"/>
</svg>
